<?xml version="1.0" encoding="UTF-8"?>
<svg id="EXAMPLE_-_Active" data-name="EXAMPLE - Active" xmlns="http://www.w3.org/2000/svg" viewBox="0 0 1920 1080">
  <defs>
    <style>
      .cls-1 {
        fill: #fff;
      }
    </style>
  </defs>
  <path class="cls-1" d="M558.3735,842.8525c-3.4238,0-6.8521-.1348-10.2749-.4072-22.3154-1.7705-43.9292-9.3096-62.5049-21.8027l-202.0776-138.8525-150.1562-97.2422c-10.1108-6.5479-16.9985-16.6553-19.396-28.46-2.397-11.8047.0039-23.7983,6.7607-33.7705,13.2061-19.4937,39.9824-24.8716,59.6924-11.9873l188.1797,123.0088c27.0425,17.6768,58.3535,28.4346,90.5483,31.1094l17.7705,1.4785c13.3721,1.1104,26.9541,1.6738,40.3682,1.6738h178.3135c41.9653,0,83.4604-14.0068,116.8413-39.4395l76.0386-57.9336c55.0234-41.9219,77.0454-114.0957,54.7979-179.5942l-.9888-2.9121c-9.2461-27.2212-4.0728-56.7402,13.8394-78.9629,17.7866-22.0674,45.2261-33.3301,73.4233-30.1133l103.3955,11.7803c39.5215,4.5029,78.1611,14.5835,114.8467,29.9629l1.5547.6519c36.5322,15.3169,79.2041,6.2817,106.1797-22.4805l19.7607-21.0708c21.6484-23.0806,54.9922-31.4028,84.9473-21.2012l186.0293,63.3506c14.666,4.9946,24.5195,18.7598,24.5195,34.2524,0,13.7949-4.7578,27.3145-13.3984,38.0684l-77.8018,96.8418c-20.7217,25.7935-48.4375,44.4136-80.1504,53.8467-31.7139,9.4346-65.0996,8.9893-96.5518-1.2842l-199.1143-65.0444c-24.7412-8.082-51.1182-5.9902-74.2744,5.8901-23.1562,11.8794-40.2412,32.085-48.1074,56.8936-12.3564,38.9697-2.0742,81.1357,26.833,110.0439,25.4482,25.4473,59.2773,39.459,95.2607,39.459h.1465l166.8418-.1738c33.6318-.0361,67.3809-3.5273,100.3096-10.3779l279.9033-58.2363c9.0166-1.8779,18.2891.3818,25.4365,6.1943s11.2461,14.4307,11.2461,23.6426v62.0996c0,6.9824-2.7695,13.4961-7.7988,18.3408-5.0293,4.8428-11.6426,7.3682-18.6191,7.1055l-125.6338-4.709-42.5752-.501c-20.8369-.2471-41.623,4.6992-60.1133,14.2979l-10.5195,5.46c-31.3408,16.2695-68.5264,19.1963-102.0244,8.0283l-3.4238-1.1416c-42.125-14.042-88.3145-6.3359-123.5977,20.6074l-28.418,24.999c-4.0312,3.5469-8.3584,6.8359-12.8604,9.7773-6.6963,4.373-13.8818,8.043-21.3574,10.9072-1.6387.6279-3.3262,1.2295-5.0146,1.7881-7.5996,2.5078-15.4873,4.21-23.4434,5.0586-1.7607.1885-3.5615.3369-5.3516.4424-.8916.0527-1.7881.0947-2.6855.127-.9033.0303-1.8027.0518-2.7021.0615h-.1152l-5.2891-.0693-14.0459-.5166c-28.6396-1.0518-56.582-7.1602-83.0498-18.1553l-105.6016-43.8652c-27.9419-11.6064-57.4502-17.4951-87.7051-17.502l-34.9966-.0088h-.0894c-61.8779,0-123.6523,14.9648-178.6685,43.2832l-68.4014,35.2051c-17.1978,7.9639-35.9858,12.0781-54.8867,12.0781ZM156.7734,513.3047c-10.7559,0-21.3477,5.1416-27.7705,14.6216-5.2358,7.7285-7.0967,17.0229-5.2388,26.1724,1.8579,9.1484,7.1958,16.9805,15.0312,22.0547l150.3271,97.3555,202.0928,138.8643c34.6616,23.3096,79.7881,26.9062,117.748,9.3711l68.1216-35.0654c56.4219-29.043,119.7856-44.3926,183.2451-44.3926h.0913l34.9966.0088c31.5776.0068,62.376,6.1533,91.5391,18.2676l105.6016,43.8652c25.3633,10.5352,52.1377,16.3877,79.5811,17.3965l13.9912.5137,5.0439.0654c.8018-.0088,1.6025-.0283,2.4023-.0557.8115-.0283,1.6279-.0664,2.4443-.1152,1.6338-.0957,3.2744-.2314,4.8779-.4033,7.2539-.7734,14.4434-2.3252,21.3701-4.6113,1.5391-.5088,3.0781-1.0566,4.5713-1.6299,6.8154-2.6113,13.3652-5.9561,19.4678-9.9424,4.1045-2.6807,8.0488-5.6787,11.7236-8.9121l28.8096-25.3281c37.9375-29.0449,87.6465-37.3643,132.9746-22.2568l3.4238,1.1416c30.9463,10.3135,65.3008,7.6123,94.2539-7.417l10.5195-5.46c19.9434-10.3545,42.3623-15.6738,64.8379-15.4229l42.7734.5059,125.6934,4.7119c4.2344.1436,8.252-1.374,11.3066-4.3154,3.0547-2.9424,4.7363-6.8984,4.7363-11.1387v-62.0996c0-6.1895-2.7539-11.9795-7.5557-15.8848-4.8027-3.9053-11.0332-5.4229-17.0898-4.1611l-279.9033,58.2363c-33.5947,6.9883-68.0254,10.5508-102.3369,10.5869l-166.8418.1738h-.1572c-38.6562,0-74.9922-15.0498-102.3301-42.3887-31.5596-31.5586-42.7852-77.5928-29.2959-120.1362,8.6787-27.3706,27.5283-49.6626,53.0762-62.769,25.5498-13.106,54.6514-15.4136,81.9443-6.4985l199.1143,65.0444c59.7852,19.5293,126.4131-.292,165.8008-49.3193l77.8018-96.8418c7.2188-8.9849,11.1943-20.2803,11.1943-31.8057,0-11.2114-7.1309-21.1724-17.7432-24.7866l-186.0283-63.3506c-26.248-8.9375-55.4619-1.6465-74.4307,18.5762l-19.7598,21.0708c-14.7178,15.6924-33.6182,26.3477-54.6582,30.8135-21.0596,4.4702-42.7344,2.4116-62.6826-5.9512l-1.5557-.6519c-35.8105-15.0132-73.5312-24.8545-112.1123-29.25l-103.3955-11.7803c-24.7627-2.8184-48.8799,7.0674-64.5049,26.4531-15.7505,19.541-20.2949,45.5117-12.1562,69.4717l.9888,2.9116c23.6304,69.5728.2397,146.2354-58.2061,190.7656l-76.0386,57.9336c-35.1123,26.751-78.7598,41.4844-122.9019,41.4844h-178.3135c-13.6895,0-27.5498-.5752-41.1963-1.709l-17.771-1.4775c-33.8452-2.8125-66.7617-14.1211-95.1914-32.7041l-188.1797-123.0098c-5.5835-3.6499-11.9062-5.3955-18.1719-5.3955Z"/>
</svg>